<?xml version="1.0" encoding="UTF-8" standalone="no"?>
<svg
   enable-background="new 0 0 512 512"
   height="512px"
   id="Layer_1"
   version="1.1"
   viewBox="0 0 512 512"
   width="512px"
   xml:space="preserve"
   sodipodi:docname="map_marker.svg"
   inkscape:version="1.1.1 (3bf5ae0d25, 2021-09-20)"
   xmlns:inkscape="http://www.inkscape.org/namespaces/inkscape"
   xmlns:sodipodi="http://sodipodi.sourceforge.net/DTD/sodipodi-0.dtd"
   xmlns="http://www.w3.org/2000/svg"
   xmlns:svg="http://www.w3.org/2000/svg"><defs
     id="defs9" /><sodipodi:namedview
     id="namedview7"
     pagecolor="#505050"
     bordercolor="#eeeeee"
     borderopacity="1"
     inkscape:pageshadow="0"
     inkscape:pageopacity="0"
     inkscape:pagecheckerboard="0"
     showgrid="false"
     inkscape:zoom="1.625"
     inkscape:cx="290.46154"
     inkscape:cy="213.23077"
     inkscape:window-width="1920"
     inkscape:window-height="1017"
     inkscape:window-x="-8"
     inkscape:window-y="-8"
     inkscape:window-maximized="1"
     inkscape:current-layer="layer3"
     inkscape:object-paths="true"
     inkscape:snap-intersection-paths="true"
     inkscape:snap-smooth-nodes="true"
     inkscape:snap-midpoints="true"
     inkscape:snap-nodes="false" /><g
     inkscape:groupmode="layer"
     id="layer2"
     inkscape:label="water"
     style="display:inline"><circle
       style="fill:#3c6bbe;fill-opacity:1;stroke:#008080;stroke-width:0.0897645;stroke-miterlimit:10;stroke-dasharray:none;stroke-opacity:1"
       id="path3831"
       cx="255.78555"
       cy="216.4738"
       r="33.96817" /></g><g
     inkscape:groupmode="layer"
     id="layer3"
     inkscape:label="icon"><g
       id="g4"
       style="fill:#ffffff"
       transform="translate(-0.03618114,0.03495581)"><path
         d="m 306.7,165 v 0 c -28,-28 -73.4,-28 -101.3,0 v 0 c -22.3,22.3 -27.4,56.6 -12.6,84.4 L 256,367.9 319.2,249.4 c 14.9,-27.8 9.8,-62 -12.5,-84.4 z m -23.3,79 v 0 c -15.2,15.2 -39.7,15.2 -54.9,0 v 0 c -15.2,-15.2 -15.2,-39.7 0,-54.9 v 0 c 15.2,-15.2 39.7,-15.2 54.9,0 v 0 c 15.2,15.2 15.2,39.8 0,54.9 z"
         fill="none"
         stroke="#000000"
         stroke-linecap="round"
         stroke-linejoin="round"
         stroke-miterlimit="10"
         stroke-width="10"
         id="path2"
         style="fill:#ffffff" /></g></g><g
     inkscape:groupmode="layer"
     id="layer1"
     inkscape:label="globe"
     style="display:inline"><path
       d="m 261.73008,249.5388 c -0.86441,-0.41345 -0.95873,-3.51523 -0.1039,-5.2837 0.95157,-1.96875 3.9375,-6.95626 0.98437,-8.62968 -2.95311,-1.67344 -2.13281,-2.42813 -3.93749,-4.36407 -1.80468,-1.93594 -1.06663,-2.22696 -1.18125,-2.72342 -0.39375,-1.70626 1.73906,-4.26563 1.83749,-4.52813 0.0985,-0.26251 0.0985,-1.24688 0.0656,-1.5422 -0.0328,-0.29531 -1.34523,-1.08281 -1.67335,-1.11563 -0.32812,-0.0329 -0.49218,0.525 -0.95156,0.55783 -0.45937,0.0329 -2.46094,-1.21407 -2.88749,-1.5422 -0.42657,-0.32812 -0.62344,-1.11563 -1.21407,-1.70625 -0.59062,-0.59062 -0.65625,-0.13125 -1.575,-0.49217 -0.91875,-0.36096 -3.87187,-1.44375 -6.13593,-2.36251 -2.26407,-0.91874 -2.46094,-2.20667 -2.49375,-3.11719 -0.0329,-0.91052 -1.37813,-2.23125 -2.00909,-3.18281 -0.63079,-0.95156 -0.74717,-2.26407 -0.97685,-1.96875 -0.22968,0.29531 1.18124,3.74062 0.95156,3.83906 -0.22968,0.0985 -0.72188,-0.95156 -1.37812,-1.80469 -0.65626,-0.85312 0.68906,-0.39374 -1.41094,-4.52812 -2.1,-4.13438 0.65624,-6.2426 0.7875,-8.4 0.13124,-2.15739 1.77188,0.7875 0.91875,-0.59062 -0.85313,-1.37813 0.0656,-4.26563 -0.59062,-5.31563 -0.65625,-1.05 -4.39688,1.18125 -4.39688,1.18125 0.0985,-1.01719 3.28125,-2.75625 5.57812,-4.36406 2.29688,-1.60782 3.69959,-0.36094 5.54532,0.22969 1.84572,0.59062 1.96875,0.39375 1.3453,-0.19687 -0.62343,-0.59063 0.2625,-0.88594 1.70625,-0.65626 1.44376,0.22969 1.8375,1.96876 4.03595,1.80469 2.19843,-0.16405 0.22968,0.42656 0.52499,0.98438 0.29532,0.55781 -0.32812,0.49218 -1.77187,1.47656 -1.44375,0.98437 0.0329,0.98437 2.59218,2.85468 2.55938,1.87032 1.77189,-1.24687 1.50938,-2.625 -0.2625,-1.37812 1.87032,-0.29531 1.87032,-0.29531 1.57499,1.05 1.28397,0.0577 2.4324,0.41869 1.14844,0.36094 4.26135,2.99381 4.26135,2.99381 -3.90469,2.13281 -1.44375,2.3625 -0.78751,2.85469 0.65625,0.49219 -1.34531,1.44375 -1.34531,1.44375 -0.82031,-0.82031 -0.95156,0.0329 -1.47655,0.32812 -0.52501,0.29532 -0.0329,1.05 -0.0329,1.05 -2.71522,0.42657 -2.1,3.28125 -2.06719,3.97032 0.0329,0.68905 -1.73906,1.73905 -2.19843,2.72343 -0.45938,0.98437 1.18124,3.1172 0.32812,3.24844 -0.85312,0.13124 -1.70625,-3.21562 -6.3,-1.96875 -1.38494,0.37598 -4.46249,1.96875 -2.82187,5.21718 1.64063,3.24844 4.36406,-0.91874 5.2828,-0.45937 0.91876,0.45937 -0.2625,2.52657 -0.0656,2.55937 0.19687,0.0329 2.59219,0.0903 2.72344,2.8875 0.13126,2.7973 3.64218,2.55938 4.39688,2.625 0.75467,0.0656 3.28125,-2.06718 3.64217,-2.16562 0.36096,-0.0985 1.8047,-1.3125 4.9547,0.49219 3.14999,1.80468 4.75781,1.54218 5.84062,2.29687 1.08281,0.7547 0.32813,2.26406 1.34532,2.75626 1.01718,0.49218 5.08593,-0.16407 6.10312,1.50936 1.01719,1.67345 -4.2,10.07344 -5.84063,10.9922 -1.64063,0.91875 -2.3953,3.01875 -4.03593,4.36406 -1.64062,1.34531 -3.9375,3.01053 -6.10313,4.29843 -1.91695,1.13986 -2.26187,3.18195 -3.11579,3.82656 m 0.55645,-34.86719 c -0.45938,0.13126 -1.41093,0.98438 -3.74063,-0.39374 -2.32968,-1.37813 -3.93749,-1.11562 -4.13437,-1.3453 0,0 -0.19687,-0.55783 0.82032,-0.65626 2.08871,-0.20222 4.72499,1.93593 5.31562,1.96875 0.59062,0.0329 0.88594,-0.59063 1.93594,-0.25227 1.04999,0.33802 0.26249,0.54757 -0.19688,0.67882 z m -10.99219,-28.18592 c -0.22881,-0.16643 0.18953,-0.35805 0.43891,-0.68907 0.14394,-0.19127 0.0372,-0.50881 0.21735,-0.68906 0.49218,-0.49219 2.92031,-1.18125 2.44553,0.16406 -0.4746,1.34532 -2.74085,1.47656 -3.10179,1.21407 z m 5.87344,4.26562 c -0.82031,-0.0329 -2.75126,-0.23686 -2.39531,-0.59063 1.38635,-1.37812 -0.525,-1.77187 -1.70624,-1.87031 -1.18127,-0.0985 -1.67345,-0.75469 -1.08283,-0.82031 0.59063,-0.0656 2.95313,0.0329 3.34689,0.36093 0.39374,0.32813 2.52655,1.18125 2.6578,1.80469 0.13125,0.62344 0,1.14844 -0.82031,1.11563 z m 7.12032,-0.22969 c -0.65625,0.525 -3.9585,-1.88378 -4.59375,-2.42812 -2.75625,-2.3625 -4.23282,-1.57501 -4.81164,-1.96875 -0.57898,-0.39375 -0.37273,-0.91875 0.51319,-1.70626 0.88595,-0.7875 3.3797,0.26251 4.82345,0.42657 1.44375,0.16407 3.11718,1.27969 3.14999,2.60584 0.0329,1.32606 1.575,2.54572 0.91876,3.07072 z"
       style="fill:#3d8a5d;fill-opacity:1;stroke-width:0.087;stroke-miterlimit:10;stroke-dasharray:none;stroke:#008080;stroke-opacity:1"
       id="path2351" /></g></svg>
